
        <svg xmlns="http://www.w3.org/2000/svg" xmlns:xlink="http://www.w3.org/1999/xlink" version="1.1" width="3193.548387096774" 
        height="3156.5115750803643" viewBox="0 0 3193.548387096774 3156.5115750803643">
			
			<g transform="scale(9.67741935483871) translate(10, 10)">
				<defs id="SvgjsDefs3293"><linearGradient id="SvgjsLinearGradient3302"><stop id="SvgjsStop3303" stop-color="#147d6c" offset="0"></stop><stop id="SvgjsStop3304" stop-color="#1effff" offset="1"></stop></linearGradient><linearGradient id="SvgjsLinearGradient3305"><stop id="SvgjsStop3306" stop-color="#fbb040" offset="0"></stop><stop id="SvgjsStop3307" stop-color="#f9ed32" offset="1"></stop></linearGradient><linearGradient id="SvgjsLinearGradient3308"><stop id="SvgjsStop3309" stop-color="#00ddff" offset="0"></stop><stop id="SvgjsStop3310" stop-color="#ff00d4" offset="1"></stop></linearGradient><linearGradient id="SvgjsLinearGradient3311"><stop id="SvgjsStop3312" stop-color="#2d388a" offset="0"></stop><stop id="SvgjsStop3313" stop-color="#00aeef" offset="1"></stop></linearGradient></defs><g id="SvgjsG3294" featureKey="rootContainer" transform="matrix(2.9388568246550153,0,0,2.9388568246550153,-0.11025446391769686,0.08425770368723878)" fill="url(#SvgjsLinearGradient3302)"><path xmlns="http://www.w3.org/2000/svg" d="M104.6 41.3a52.2 52.2 0 0 0-3.5-11.2A51.1 51.1 0 0 0 44.3 1a49.6 49.6 0 0 0-5.7 1.5 49.1 49.1 0 0 0-7.9 2.7A51.6 51.6 0 0 0 6.3 77a53.7 53.7 0 0 0 4.1 6.4 57 57 0 0 0 5 5.7 51.7 51.7 0 0 0 55.3 11.5l3.3-1.4 3-1.5a50.9 50.9 0 0 0 5.8-3.8l2.7-2.1 1.2-1.1 1.1-.9 2-1.8.7-.6.6-.7 1.8-2a48.5 48.5 0 0 0 5.9-8.3 50.4 50.4 0 0 0 5.6-14.7 51.6 51.6 0 0 0 .2-20.4zM87.1 88.6l-1.2 1.1-1.2 1.1-2.6 2.1a49.5 49.5 0 0 1-5.7 3.6l-3 1.5-3.2 1.3-4.9 1.6h-.5a50.9 50.9 0 0 1-20.3.1 51.8 51.8 0 0 1-11.1-3.6A50.5 50.5 0 0 1 22.9 91a52 52 0 0 1-9.1-9.4 50.3 50.3 0 0 1-3.7-5.7c-.6-1-1.1-2-1.6-3.1s-1-2.1-1.3-3.2a50.6 50.6 0 0 1 8.6-50.8l.8-.8.5-.6.6-.6 1.2-1.1 2.4-2.1A50.5 50.5 0 0 1 62.4 3.2a48.5 48.5 0 0 1 14.7 5.2 47 47 0 0 1 8.3 5.8l2 1.8.7.6.6.7 1.8 2a49.7 49.7 0 0 1 11.3 22.9 50.8 50.8 0 0 1-.1 20.2 51.6 51.6 0 0 1-3.6 11 50.2 50.2 0 0 1-6.6 10.5l-2.1 2.4zm-44.9 13a50.1 50.1 0 0 1-13.7-5 51.8 51.8 0 0 1-6.2-4 55.2 55.2 0 0 1-5.5-4.8 49.9 49.9 0 0 1-11-53.2c.4-1.1.9-2.1 1.3-3.1l.6-1.3a50.2 50.2 0 0 0-3.4 11 51.3 51.3 0 0 0 2.4 28.5c.4 1.1.9 2.2 1.4 3.2s1 2.1 1.6 3.1a50.6 50.6 0 0 0 3.7 5.8 51.5 51.5 0 0 0 9.2 9.5 50.9 50.9 0 0 0 10.7 6.5 51 51 0 0 0 28.7 3.9 50.3 50.3 0 0 1-19.8-.1zm61.9-39.9a50.2 50.2 0 0 1-5.5 14.7 48.4 48.4 0 0 1-5.8 8.3l-1.8 2-.6.7-.7.6-1.9 1.7h.2l2.3-2.4 2.1-2.5A51.3 51.3 0 0 0 98.9 74a51.4 51.4 0 0 0 3.2-31.6 49.6 49.6 0 0 0-2.5-8.2 49.4 49.4 0 0 0-3.1-6.5 48.7 48.7 0 0 0-5.9-8.3l-1.8-2-.6-.7-.7-.6-2-1.8A49.9 49.9 0 0 0 77.3 8a49.3 49.3 0 0 0-6.5-3.2 49.8 49.8 0 0 0-8.2-2.6A52.2 52.2 0 0 0 49.9 1a50.8 50.8 0 0 1 22.7 3.2l3.2 1.3 3.1 1.6a50.1 50.1 0 0 1 5.7 3.7l2.6 2.1 1.2 1.1 1.2 1.1 2.3 2.3 2.1 2.4a50.4 50.4 0 0 1 6.5 10.5 51.6 51.6 0 0 1 3.6 11 51.1 51.1 0 0 1 0 20.3z"></path></g><g id="SvgjsG3295" featureKey="symbolFeature-0" transform="matrix(1.1499999999999997,0,0,1.1499999999999997,98.0000008225441,81.95514831542968)" fill="url(#SvgjsLinearGradient3305)"><g xmlns="http://www.w3.org/2000/svg" transform="translate(0,-996.3622)"><path style="color:;font-style:normal;font-variant:normal;font-weight:normal;font-stretch:normal;font-size:medium;line-height:normal;font-family:sans-serif;text-indent:0;text-align:start;text-decoration:none;text-decoration-line:none;text-decoration-style:solid;text-decoration-color:;letter-spacing:normal;word-spacing:normal;text-transform:none;direction:ltr;block-progression:tb;writing-mode:lr-tb;baseline-shift:baseline;text-anchor:start;white-space:normal;clip-rule:nonzero;display:inline;overflow:visible;visibility:visible;opacity:1;isolation:auto;mix-blend-mode:normal;color-interpolation:sRGB;color-interpolation-filters:linearRGB;solid-color:;solid-opacity:1;fill:url(#SvgjsLinearGradient3305);fill-opacity:1;fill-rule:evenodd;stroke:none;stroke-width:1.5;stroke-linecap:butt;stroke-linejoin:miter;stroke-miterlimit:4;stroke-dasharray:none;stroke-dashoffset:0;stroke-opacity:1;color-rendering:auto;image-rendering:auto;shape-rendering:auto;text-rendering:auto;enable-background:accumulate" d="m 49.2999,996.4012 0,11.6661 -7.2826,5.4624 -41.94350005,-0.056 0,3.8319 3.81260005,0 0,30.9117 -3.886400049999985,0 c 0,1.3686 0,2.7373 0,4.1059 L 99.9244,1052.3232 l 0,-4.1059 -4.3097,0 0,-30.9117 4.3853,0 0,-3.8319 -42.1807,-0.01 -7.1701,-5.378 0,-3.5051 11.3885,0 0,-8.1786 z m 1.3493,1.3494 10.0391,0 0,5.4799 -10.0391,0 z m -0.6853,11.5062 19.5654,14.674 -39.1324,0 z m 0,1.5531 -0.3953,0.2882 -16.1305,11.6995 33.0534,0 z m 0,1.6674 12.3672,8.9709 -24.7361,0 z m 9.6545,2.3349 39.0323,0.011 0,1.1333 c -12.5523,-0.013 -37.6566,-0.1125 -37.6566,-0.1125 z m -58.1953,0.012 38.7986,0.051 -1.5004,1.1262 c 0,0 -24.8709,-0.046 -37.2982,-0.046 z m 61.3771,2.3754 c 0,0 20.9948,0.1054 31.4651,0.1054 l 0,6.6255 -22.4889,0 z m -57.5645001,0.1072 31.6900001,0.042 -8.7777,6.5815 -22.9123001,0 z m 0,7.973 27.8599001,0 0,20.24 -2.6987,0 c 0,0.899 0,1.798 0,2.6969 l -25.1612001,0 z m 29.2092001,0 31.0347,0 0,20.24 -9.4454,0 0,-10.12 -0.013,0 c -0.057,-2.0983 -1.1868,-4.0276 -3.0096,-5.0863 -0.9388,-0.5454 -1.9878,-0.8203 -3.0377,-0.8223 -1.0501,0 -2.1005,0.2682 -3.0413,0.81 -1.8335,1.0557 -2.9753,2.9915 -3.0325,5.0986 l -0.011,0 0,10.12 -9.4454,0 z m 32.384,0 27.4364,0 0,22.9369 -24.7377,0 0,-2.6969 -2.6987,0 z m -56.7828,3.8038 0,6.7045 6.7151,0 0,-6.7045 z m 11.5256,0 0,6.7045 6.7133,0 0,-6.7045 z m 49.8691,0 0,6.7045 6.7133,0 0,-6.7045 z m 11.5239,0 0,6.7045 6.715,0 0,-6.7045 z m -43.8077,0.4111 c -0.484,-0.016 -0.9729,0.099 -1.409,0.3479 -0.8534,0.4869 -1.3765,1.3988 -1.3986,2.3859 l 0,0 0,2.465 1.3494,0 2.9042,0 1.193,0 0,-2.465 -0.01,0 c -0.021,-0.9208 -0.4746,-1.7841 -1.2456,-2.2928 -0.4194,-0.2766 -0.8988,-0.425 -1.3828,-0.441 z m 21.7352,0.3426 c -0.4758,0 -0.9526,0.1235 -1.3757,0.376 -0.8277,0.4939 -1.3313,1.3913 -1.3529,2.3596 l 0,0 0,2.465 1.3494,0 2.9042,0 1.193,0 0,-2.465 -0.01,0 c -0.021,-0.9622 -0.5169,-1.8546 -1.337,-2.3508 -0.4216,-0.2551 -0.8965,-0.3833 -1.3722,-0.3848 z m -49.4967,0.5956 4.0164,0 0,4.0059 -4.0164,0 z m 11.5255,0 4.0147,0 0,4.0059 -4.0147,0 z m 49.8692,0 4.0146,0 0,4.0059 -4.0146,0 z m 11.5238,0 4.0163,0 0,4.0059 -4.0163,0 z m -45.201,0.4076 c 0.2372,0.01 0.4719,0.082 0.6835,0.2214 0.4234,0.2793 0.678,0.7858 0.6448,1.3248 l 0,0 0,0.9575 -2.7479,0 0,-1.0507 c -10e-5,-0.5401 0.2839,-1.029 0.7221,-1.279 0.2192,-0.125 0.4586,-0.1822 0.6957,-0.174 z m 10.8579,0 c 0.8161,0 1.6321,0.2148 2.3632,0.6396 1.462,0.8492 2.3577,2.4117 2.3508,4.1024 l 0,9.9373 -9.4453,0 0,-9.9548 c -6e-4,-1.6908 0.9013,-3.25 2.3665,-4.0937 0.7327,-0.4219 1.5489,-0.6323 2.3648,-0.6308 z m 10.9178,0.3426 c 0.2332,6e-4 0.4659,0.065 0.6781,0.1933 0.4244,0.2567 0.6937,0.7404 0.6905,1.2703 l 0,1.0419 -2.7478,0 0,-1.0507 c -2e-4,-0.5299 0.2735,-1.011 0.6992,-1.265 0.2128,-0.127 0.4466,-0.1903 0.68,-0.1898 z m -50.8426,6.5271 0,6.7045 6.7151,0 0,-6.7045 z m 11.5256,0 0,6.7045 6.7133,0 0,-6.7045 z m 49.8691,0 0,6.7045 6.7133,0 0,-6.7045 z m 11.5239,0 0,6.7045 6.715,0 0,-6.7045 z m -22.0725,0.752 c -0.4758,0 -0.9526,0.1252 -1.3757,0.3777 -0.8277,0.4939 -1.3313,1.3896 -1.3529,2.3578 l 0,0 0,2.465 1.3494,0 2.9042,0 1.193,0 0,-2.465 -0.01,0 c -0.022,-0.9616 -0.5174,-1.8548 -1.337,-2.3508 -0.4216,-0.255 -0.8965,-0.3833 -1.3722,-0.3847 z m -21.7668,0 c -0.4807,-0.01 -0.9643,0.1098 -1.3951,0.3602 -0.8428,0.4898 -1.3589,1.3943 -1.3809,2.3736 l 0,0 0,2.465 1.3494,0 2.9042,0 1.193,0 0,-2.465 -0.01,0 c -0.021,-0.9376 -0.4916,-1.8135 -1.2826,-2.3174 -0.4204,-0.2678 -0.8986,-0.4064 -1.3792,-0.4164 z m -27.7299,0.5956 4.0164,0 0,4.0058 -4.0164,0 z m 11.5255,0 4.0147,0 0,4.0058 -4.0147,0 z m 49.8692,0 4.0146,0 0,4.0058 -4.0146,0 z m 11.5238,0 4.0163,0 0,4.0058 -4.0163,0 z m -23.4253,0.7484 c 0.2332,6e-4 0.4659,0.065 0.6781,0.1933 0.4244,0.2568 0.6937,0.7404 0.6905,1.2703 l 0,1.0418 -2.7478,0 0,-1.0506 c -2e-4,-0.5299 0.2735,-1.011 0.6992,-1.265 0.2128,-0.127 0.4466,-0.1903 0.68,-0.1898 z m -21.7914,0 c 0.2354,0 0.4697,0.074 0.6817,0.2091 0.4238,0.2701 0.6849,0.7682 0.6641,1.3037 l 0,0.9909 -2.7479,0 0,-1.0507 c -1e-4,-0.536 0.2803,-1.0203 0.7133,-1.272 0.2165,-0.1258 0.4533,-0.1857 0.6888,-0.181 z m -7.3511,7.0594 36.432,0 0,1.3476 -36.432,0 z m -30.3969001,2.697 97.2258001,0 0,1.4073 -97.2258001,0 z"></path></g></g><g id="SvgjsG3296" featureKey="nameFeature-0" transform="matrix(1.2280485110642605,0,0,1.2280485110642605,51.8070763306654,152.78619773987054)" fill="url(#SvgjsLinearGradient3308)"><path d="M22.96 17 l-14.88 0 l0 6.96 l12.84 0 l0 4.92 l-12.84 0 l0 11.12 l-5.48 0 l0 -28 l20.36 0 l0 5 z M26.090000000000003 16.92 c-1.76 0 -3.16 -1.36 -3.16 -3.12 c0 -1.68 1.4 -3.04 3.16 -3.04 s3.16 1.36 3.16 3.04 c0 1.76 -1.4 3.12 -3.16 3.12 z M23.37 40 l0 -20.24 l5.32 0 l0 20.24 l-5.32 0 z M45.66 19.76 l5.76 0 l-8.36 20.24 l-5.96 0 l-8.36 -20.24 l5.8 0 l5.56 14.4 z M61.150000000000006 40.56 c-6.48 0 -11 -4.28 -11 -10.68 c0 -6.04 4.24 -10.68 10.6 -10.68 c6.64 0 10.44 4.6 10.44 10.4 c0 0.64 0 1.24 -0.12 1.88 l-15.72 0 c0.36 2.6 2.2 4.6 5.88 4.6 c2.56 0 4.12 -1.16 4.92 -2.68 l4.76 1.4 c-1.16 2.64 -4.44 5.76 -9.76 5.76 z M55.35000000000001 28.16 l10.68 0 c-0.24 -2.48 -2.16 -4.48 -5.32 -4.48 c-3.08 0 -5.08 2.16 -5.36 4.48 z M90.89000000000001 40.56 c-6.84 0 -11.36 -4.12 -12.92 -8.48 l5.24 -1.6 c1.12 2.92 3.96 5.24 8 5.24 c3.28 0 5.32 -1.68 5.32 -3.52 c0 -1.48 -1 -2.48 -3.68 -3.36 l-7.16 -2.24 c-3.68 -1.16 -6.36 -3.52 -6.32 -7.12 c-0.04 -4.36 4.2 -8.04 10.04 -8.04 c6.04 0 10.52 3.32 12.04 7.2 l-5.08 1.48 c-1.16 -2.28 -3.76 -3.84 -6.92 -3.84 c-2.76 0 -4.52 1.4 -4.52 3.04 c0 1.24 0.84 2.08 2.68 2.64 l6.96 2.24 c4.28 1.32 7.52 3.12 7.52 7.68 c0 4.8 -4.48 8.68 -11.2 8.68 z M114.94 35.08 l1.28 4.28 c-1.6 0.64 -3.04 0.96 -4.72 0.96 c-4.64 0 -6.76 -2.88 -6.76 -7.24 l0 -8.68 l-3.4 0 l0 -4.64 l3.4 0 l0 -6.56 l5.32 0 l0 6.56 l5.92 0 l0 4.64 l-5.92 0 l0 8.68 c0 1.64 0.8 2.56 2.48 2.56 c0.92 0 1.6 -0.16 2.4 -0.56 z M125.83 40.56 c-5.6 0 -10 -4.56 -10 -10.68 c0 -6.16 4.4 -10.68 10 -10.68 c2.84 0 5.08 1.16 6.52 3 l0 -2.44 l5.32 0 l0 20.24 l-5.32 0 l0 -2.48 c-1.44 1.84 -3.68 3.04 -6.52 3.04 z M126.75 35.84 c3.2 0 5.76 -2.48 5.76 -6 c0 -3.48 -2.56 -5.92 -5.76 -5.92 c-3.32 0 -5.68 2.44 -5.68 5.92 c0 3.52 2.36 6 5.68 6 z M145.35999999999999 22.76 c1.2 -2.36 3.52 -3.72 6.68 -3.28 l0 4.96 c-4.32 -0.68 -6.68 1.32 -6.68 6.76 l0 8.8 l-5.28 0 l0 -20.24 l5.28 0 l0 3 z M162.22 40.32 c-1.84 0 -3.28 -1.44 -3.28 -3.28 c0 -1.72 1.44 -3.12 3.28 -3.12 c1.8 0 3.24 1.4 3.24 3.12 c0 1.84 -1.44 3.28 -3.24 3.28 z"></path></g><g id="SvgjsG3297" featureKey="sloganFeature-0" transform="matrix(0.7251377680205712,0,0,0.7251377680205712,86.41666592257752,208.88121794789393)" fill="url(#SvgjsLinearGradient3311)"><path d="M18.62 19.32 c0.16 0.02 0.04 0.68 -0.1 0.68 l-5.22 0 c-0.14 0 -0.24 -0.66 -0.12 -0.68 c0.84 -0.14 1.46 -0.54 1.4 -1.8 l-0.38 -6.72 l-3.24 6.6 c-0.42 0.86 -0.74 1.74 -0.8 2.06 c-0.04 0.24 -0.46 0.36 -0.78 0.36 c-0.3 0 -0.5 -0.12 -0.62 -0.36 l-4.62 -8.76 l-0.3 6.82 c-0.06 1.4 0.76 1.72 1.4 1.8 c0.16 0.02 0.04 0.68 -0.1 0.68 l-4.14 0 c-0.16 0 -0.28 -0.66 -0.12 -0.68 c0.86 -0.1 1.58 -0.4 1.66 -1.8 l0.64 -11.48 c0.02 -0.34 0.78 -0.36 0.98 0 l5.8 10.84 l5.38 -10.84 c0.18 -0.36 0.98 -0.34 1 0 l0.64 11.48 c0.08 1.4 0.8 1.7 1.64 1.8 z M23.7095 20 c-0.16 0 -0.28 -0.66 -0.12 -0.68 c1.02 -0.14 1.66 -0.54 1.66 -1.8 l0 -9.04 c0 -1.26 -0.64 -1.66 -1.66 -1.8 c-0.16 -0.02 -0.04 -0.68 0.12 -0.68 l5.48 0 c0.16 0 0.28 0.66 0.12 0.68 c-0.86 0.12 -1.66 0.4 -1.66 1.8 l0 9.04 c0 1.4 0.8 1.68 1.66 1.8 c0.16 0.02 0.04 0.68 -0.12 0.68 l-5.48 0 z M47.459 20.2 c-0.34 0 -0.52 -0.14 -0.74 -0.38 l-9.52 -9.96 l0 7.6 c0 1.36 0.8 1.58 1.94 1.86 c0.16 0.04 0.08 0.68 -0.12 0.68 l-4.74 0 c-0.16 0 -0.28 -0.62 -0.1 -0.68 c0.84 -0.28 1.64 -0.44 1.64 -1.86 l0 -7.76 c0 -1.42 -0.22 -2.1 -0.74 -2.8 c-0.18 -0.24 -0.36 -0.4 -0.36 -0.46 c0 -0.18 0.12 -0.44 0.4 -0.44 l1.48 0 c0.2 0 0.34 0.02 0.48 0.18 l9.32 9.86 l0 -7.52 c0 -1.42 -0.9 -1.58 -1.94 -1.84 c-0.16 -0.04 -0.08 -0.68 0.12 -0.68 l4.74 0 c0.16 0 0.26 0.64 0.1 0.68 c-0.88 0.26 -1.64 0.42 -1.64 1.84 l0 7.78 c0 1.32 0.04 2.78 0.24 3.52 c0.08 0.3 -0.24 0.38 -0.56 0.38 z M54.2085 20.04 c-0.2 0.02 -0.28 -0.68 -0.12 -0.72 c1.16 -0.3 2.06 -0.48 2.06 -1.96 l0 -8.88 c0 -1.28 -0.82 -1.62 -1.68 -1.84 c-0.16 -0.04 -0.06 -0.7 0.1 -0.68 c0.82 0.1 1.66 0.12 2.5 0.12 c1.56 0 2.96 -0.12 3.98 -0.12 c4.84 0 7.46 2.88 7.46 6.74 c0 3.84 -2.62 7.34 -7.48 7.34 c-0.96 0 -2.2 -0.12 -3.68 -0.12 c-1.24 0 -2.22 0.02 -3.14 0.12 z M61.2285 18.98 c3.26 0 4.88 -1.76 4.88 -5.14 c0 -3.82 -2.08 -6.82 -5.68 -6.82 c-1.42 0 -1.88 0.44 -1.88 1.46 l0 8.88 c0 1.08 0.74 1.62 2.68 1.62 z M77.838 20.32 c-1.64 0 -4.14 -0.72 -3.9 -1.6 l0.2 -0.74 c0.56 -2.1 1.22 0.98 4.52 0.98 c1.68 0 2.5 -0.82 2.5 -1.98 c0 -0.94 -0.6 -1.34 -2.02 -2.22 l-1.94 -1.22 c-2.16 -1.36 -3.04 -2.2 -3.04 -3.7 c0 -2.46 2.4 -4.16 4.88 -4.16 c1.52 0 3.46 0.66 3.24 1.34 l-0.24 0.76 c-0.62 1.94 -1.12 -0.74 -3.86 -0.74 c-1.42 0 -2.16 0.72 -2.16 1.78 c0 0.9 0.54 1.4 1.88 2.22 l2.1 1.3 c2.12 1.32 2.98 2.22 2.98 3.66 c0 2.5 -2.46 4.32 -5.14 4.32 z M105.80749999999999 19.32 c0.16 0.02 0.04 0.68 -0.1 0.68 l-5.22 0 c-0.14 0 -0.24 -0.66 -0.12 -0.68 c0.84 -0.14 1.46 -0.54 1.4 -1.8 l-0.38 -6.72 l-3.24 6.6 c-0.42 0.86 -0.74 1.74 -0.8 2.06 c-0.04 0.24 -0.46 0.36 -0.78 0.36 c-0.3 0 -0.5 -0.12 -0.62 -0.36 l-4.62 -8.76 l-0.3 6.82 c-0.06 1.4 0.76 1.72 1.4 1.8 c0.16 0.02 0.04 0.68 -0.1 0.68 l-4.14 0 c-0.16 0 -0.28 -0.66 -0.12 -0.68 c0.86 -0.1 1.58 -0.4 1.66 -1.8 l0.64 -11.48 c0.02 -0.34 0.78 -0.36 0.98 0 l5.8 10.84 l5.38 -10.84 c0.18 -0.36 0.98 -0.34 1 0 l0.64 11.48 c0.08 1.4 0.8 1.7 1.64 1.8 z M125.33699999999999 19.32 c0.28 0.04 0.2 0.68 -0.04 0.68 l-5.28 0 c-0.26 0 -0.28 -0.64 -0.06 -0.68 c0.74 -0.14 1.54 -0.4 0.8 -2.12 l-0.22 -0.5 c-0.2 -0.48 -0.54 -0.52 -1.14 -0.52 l-4.08 0 c-0.6 0 -0.94 0.04 -1.14 0.52 l-0.2 0.5 c-0.7 1.72 0.06 1.98 1.02 2.12 c0.26 0.04 0.2 0.68 -0.06 0.68 l-4.32 0 c-0.24 0 -0.3 -0.64 -0.06 -0.68 c0.82 -0.14 1.3 -0.42 2.04 -2.12 l3.38 -7.76 c0.78 -1.76 1.02 -2.58 1.02 -3.34 c0 -0.12 1.4 -0.44 1.46 -0.3 l4.88 11.38 c0.72 1.7 1.2 2.02 2 2.14 z M119.25699999999999 15.059999999999999 c0.28 0 0.58 -0.04 0.46 -0.32 l-2.34 -5.6 l-2.36 5.6 c-0.12 0.28 0.18 0.32 0.46 0.32 l3.78 0 z M135.82649999999998 19.32 c0.16 0.02 0.04 0.68 -0.12 0.68 l-5.48 0 c-0.16 0 -0.28 -0.66 -0.12 -0.68 c1.02 -0.14 1.66 -0.54 1.66 -1.8 l0 -9.04 c0 -1.26 -0.64 -1.66 -1.66 -1.8 c-0.16 -0.02 -0.04 -0.68 0.12 -0.68 l5.48 0 c0.16 0 0.28 0.66 0.12 0.68 c-0.86 0.12 -1.66 0.4 -1.66 1.8 l0 9.04 c0 1.4 0.8 1.68 1.66 1.8 z M144.32649999999998 19.5 c0.16 0 0.12 0.54 0 0.58 c-1.26 0.42 -3.04 0.28 -4.26 -1.04 l-5.66 -6.12 l4.52 -4.64 c0.96 -0.98 0.9 -1.42 -0.16 -1.6 c-0.24 -0.04 -0.14 -0.68 0.02 -0.68 l4.6 0 c0.16 0 0.28 0.66 0.08 0.68 c-0.88 0.12 -1.92 0.52 -3.18 1.82 l-3.54 3.64 l5.16 5.54 c1.3 1.38 2 1.82 2.42 1.82 z M149.236 20.04 c-0.2 0.02 -0.28 -0.68 -0.12 -0.72 c1.16 -0.3 2.06 -0.48 2.06 -1.96 l0 -8.88 c0 -1.28 -0.82 -1.62 -1.68 -1.84 c-0.16 -0.04 -0.06 -0.7 0.1 -0.68 c1.46 0.16 3.98 0.12 5.2 0.12 c1.82 0 3.14 -0.08 4.78 -0.12 c0.48 0 0.48 0.32 0.38 0.78 l-0.48 1.9 c-0.06 0.28 -0.56 0.28 -0.64 0 c-0.3 -0.98 -0.9 -1.54 -3.4 -1.54 c-1.4 0 -1.86 0.36 -1.86 1.4 l0 3.26 c0 0.52 0.26 0.62 0.66 0.62 l0.44 0 c1.62 0 3.02 -0.16 3.84 -0.9 c0.2 -0.18 0.64 -0.14 0.46 0.26 l-1.14 2.52 c-0.16 0.36 -0.46 0.32 -0.68 0.02 c-0.46 -0.64 -1.48 -0.9 -2.64 -0.9 l-0.28 0 c-0.4 0 -0.66 0.1 -0.66 0.62 l0 3.36 c0 1.14 0.48 1.56 2.14 1.56 c3.02 0 4.22 -1.38 4.7 -2.14 c0.14 -0.22 0.68 -0.12 0.68 0.22 c0 1.02 -0.86 3.04 -2.12 3.04 c-1.12 -0.06 -2.22 -0.12 -3.9 -0.12 c-1.84 0 -4.02 -0.06 -5.84 0.12 z M180.6055 19.5 c0.16 0 0.12 0.54 0 0.58 c-1.26 0.42 -3 0.36 -4.2 -1.18 l-3.08 -3.96 c-0.86 -1.12 -1.88 -1.28 -3.28 -1.3 l0 3.88 c0 1.4 0.96 1.64 2.24 1.8 c0.14 0.02 0.04 0.68 -0.12 0.68 l-6.06 0 c-0.16 0 -0.28 -0.66 -0.12 -0.68 c1.02 -0.14 1.66 -0.54 1.66 -1.8 l0 -8.92 c0 -1.32 -0.7 -1.7 -1.66 -1.96 c-0.16 -0.04 -0.06 -0.7 0.12 -0.68 c0.78 0.1 1.66 0.12 2.3 0.12 c1.48 0 2.86 -0.12 3.82 -0.12 c3.02 0 5.04 1.24 5.04 3.7 c0 2.32 -1.88 3.46 -3.56 3.56 l0 0.1 c0.8 0 1.38 0.34 2.26 1.44 l2.98 3.74 c0.62 0.78 1.22 1 1.66 1 z M170.62550000000002 12.719999999999999 c2.98 0 4.12 -0.52 4.12 -2.52 c0 -2.14 -1.36 -3.2 -3.14 -3.2 c-1.18 0 -1.56 0.48 -1.56 1.6 l0 4.12 l0.58 0 z M186.835 20.2 c-0.44 0 -1.52 -0.94 -1.52 -1.52 s1.08 -1.52 1.52 -1.52 s1.52 0.94 1.52 1.52 s-1.08 1.52 -1.52 1.52 z"></path></g>
			</g>
		</svg>
	