
        <svg xmlns="http://www.w3.org/2000/svg" xmlns:xlink="http://www.w3.org/1999/xlink" version="1.1" width="3182.0277866639617" 
        height="2215.619465800406" viewBox="0 0 3182.0277866639617 2215.619465800406">
			<rect fill="#000000" width="3182.0277866639617" height="2215.619465800406"/>
			<g transform="scale(9.101389333198075) translate(10, 10)">
				<defs id="SvgjsDefs1891"><linearGradient id="SvgjsLinearGradient1898"><stop id="SvgjsStop1899" stop-color="#8f5e25" offset="0"></stop><stop id="SvgjsStop1900" stop-color="#fbf4a1" offset="0.5"></stop><stop id="SvgjsStop1901" stop-color="#8f5e25" offset="1"></stop></linearGradient><linearGradient id="SvgjsLinearGradient1902"><stop id="SvgjsStop1903" stop-color="#8f5e25" offset="0"></stop><stop id="SvgjsStop1904" stop-color="#fbf4a1" offset="0.5"></stop><stop id="SvgjsStop1905" stop-color="#8f5e25" offset="1"></stop></linearGradient><linearGradient id="SvgjsLinearGradient1906"><stop id="SvgjsStop1907" stop-color="#8f5e25" offset="0"></stop><stop id="SvgjsStop1908" stop-color="#fbf4a1" offset="0.5"></stop><stop id="SvgjsStop1909" stop-color="#8f5e25" offset="1"></stop></linearGradient></defs><g id="SvgjsG1892" featureKey="rootContainer" transform="matrix(2.8391043032307337,0,0,2.8391043032307337,0,0)" fill="url(#SvgjsLinearGradient1898)"><path xmlns="http://www.w3.org/2000/svg" d="M116.1 78.7H0V0h116.1zM2 76.7h112.1V2H2z"></path></g><g id="SvgjsG1893" featureKey="symbolFeature-0" transform="matrix(1.48120354505666,0,0,1.48120354505666,115.38284054755277,25.639092181345564)" fill="url(#SvgjsLinearGradient1902)"><g xmlns="http://www.w3.org/2000/svg"><path d="M65.08694,20.84216c2.432-0.533,2.4254-3.9986-0.002-4.5307l-30.0346-6.5064c-0.688-0.147-1.4204-0.1455-2.0899,0.0005   l-30.0478,6.5063c-2.4255,0.5317-2.4309,3.9976,0.0024,4.5308l10.05519,2.1772v8.503c0,0.2363,0.0835,0.4653,0.2363,0.6455   c3.3242,3.9316,12.9199,5.3325,20.792,5.3325c7.8726,0,17.4663-1.4014,20.7827-5.3335c0.1524-0.1802,0.2359-0.4087,0.2359-0.6445   v-8.4992l4.665-1.0106v10.6312c-1.5248,0.5887-2.62009,2.4711-2.62009,4.7902c0,0.541,0.06329,1.0658,0.18019,1.5626l-23.25,3.0585   l-27.8999-3.6724c-0.2915-0.0385-0.5821,0.0523-0.7989,0.2476c-1.7392,1.564-2.2934,5.8091-2.0713,9.3232   c0.1143,1.8076,0.5479,5.0078,2.17,6.1324c0.1679,0.1167,0.3671,0.1782,0.5698,0.1782c0.0376,0,0.0757-0.002,0.1133-0.0064   l26.2824-3.0008l-2.5647,5.6322c-0.229,0.5029-0.0068,1.0957,0.4956,1.3247c0.5101,0.231,1.0977,0.002,1.3248-0.4956l2.3862-5.2407   l2.3862,5.2402c0.2295,0.5024,0.8233,0.7231,1.3247,0.4956c0.5025-0.229,0.72461-0.8218,0.49561-1.3247l-2.56381-5.6301   l26.2865,2.9992c0.2417,0.0274,0.48631-0.0346,0.686-0.1743c2.7255-1.905,2.6992-10.3714,1.1176-13.9595   c0.3637-0.7904,0.5694-1.7198,0.5694-2.6899c0-2.3191-1.0949-4.2015-2.6196-4.7902v-11.0645L65.08694,20.84216z M36.28564,49.29576   c-0.1021-0.0105-2.3168-0.2392-2.1802-0.2251c-0.1152-0.0134-2.2914,0.213-2.3916,0.2242v-5.4507l2.1724,0.2182   c0.0664,0.0069,0.1338,0.0069,0.1992,0l2.2002-0.2192V49.29576z M5.21824,47.82806c-0.1924-3.044,0.3096-6.169,1.1426-7.3926   l23.353,3.0741v6.0367l-23.4052,2.6724C5.84864,51.61467,5.36284,50.11467,5.21824,47.82806z M61.70164,52.21917l-23.416-2.6715   v-6.0398c1.1107-0.146-5.9252,0.7792,23.3555-3.0714C63.28294,42.82887,63.11283,50.44347,61.70164,52.21917z M62.21244,38.38906   c-0.2486-0.0454-0.2051-0.0038-2.9756,0.3437c-0.1143-0.4008-0.17479-0.8447-0.17479-1.2983c0-1.7168,0.85539-3,1.62009-3   c0.7646,0,1.6196,1.2832,1.6196,3C62.30173,37.76456,62.27104,38.08587,62.21244,38.38906z M3.33794,18.26646l30.0483-6.5068   c0.4097-0.089,0.8469-0.0844,1.2427,0.001l30.0302,6.5053c0.33701,0.0738,0.33791,0.5482,0.002,0.6216   c-31.8165,6.868-30.0526,6.5719-30.65609,6.5723c-0.58681,0.0003,1.23619,0.3123-30.66471-6.5718   C3.00464,18.81456,3.00224,18.34007,3.33794,18.26646z M53.01714,31.13566c-2.5845,2.622-10.12309,4.3652-19.0186,4.3652   c-8.896,0-16.43849-1.7432-19.0283-4.3657v-7.6782c18.0792,3.8744,18.05581,4.0024,19.0312,4.0024   c0.9719,0,0.3969-0.0151,19.0157-4.002V31.13566z"></path><path d="M20.91014,43.96177l-3.9687-0.4126c-0.5518-0.0551-1.041,0.3418-1.0982,0.8912c-0.0571,0.5493,0.3418,1.041,0.8911,1.0981   l3.9698,0.4126c0.0351,0.0039,0.0698,0.0054,0.104,0.0054c0.5063,0,0.9404-0.3828,0.9936-0.897   C21.85894,44.51017,21.45944,44.01896,20.91014,43.96177z"></path></g></g><g id="SvgjsG1894" featureKey="nameFeature-0" transform="matrix(1.7990459176576057,0,0,1.7990459176576057,63.70475594489681,110.41145241951651)" fill="url(#SvgjsLinearGradient1906)"><path d="M20 12 l-0.000039062 4.68 l-11.56 0 l-1.12 6.36 l0.08 0.08 c1.44 -1.44 3.2667 -2.16 5.48 -2.16 c2.5867 0 4.6732 0.88 6.26 2.64 s2.38 4.0532 2.38 6.88 c0 2.8 -1.0067 5.18 -3.02 7.14 s-4.4332 2.94 -7.26 2.94 c-3.12 0 -5.64 -0.81332 -7.56 -2.44 s-2.9067 -3.7734 -2.96 -6.44 l5.68 0 c0.13332 1.28 0.62 2.3 1.46 3.06 s1.8867 1.14 3.14 1.14 c1.4133 0 2.5733 -0.52668 3.48 -1.58 s1.36 -2.3266 1.36 -3.82 s-0.43332 -2.74 -1.3 -3.74 s-2.06 -1.5 -3.58 -1.5 c-1.0133 0 -1.84 0.18 -2.48 0.54 s-1.2267 0.92668 -1.76 1.7 l-5.12 0 l2.76 -15.48 l15.64 0 z M45.812000000000005 18.76 c2.7733 0 4.94 0.56004 6.5 1.68 s2.4333 2.76 2.62 4.92 l-5.4 0 c-0.08 -0.98668 -0.44 -1.7 -1.08 -2.14 s-1.5733 -0.66 -2.8 -0.66 c-1.0667 0 -1.86 0.16 -2.38 0.48 s-0.78 0.8 -0.78 1.44 c0 0.48 0.17332 0.88 0.52 1.2 s0.87336 0.6 1.58 0.84 s1.4867 0.44 2.34 0.6 c2.5867 0.50668 4.4132 1.0267 5.48 1.56 s1.8467 1.1733 2.34 1.92 s0.74 1.6667 0.74 2.76 c0 2.32 -0.84668 4.1 -2.54 5.34 s-3.9933 1.86 -6.9 1.86 c-3.04 0 -5.4068 -0.65332 -7.1 -1.96 s-2.5666 -3.08 -2.62 -5.32 l5.4 0 c0 1.0667 0.41332 1.9134 1.24 2.54 s1.8667 0.94 3.12 0.94 c1.0667 0 1.9534 -0.23332 2.66 -0.7 s1.06 -1.1134 1.06 -1.94 c0 -0.53332 -0.22 -0.97332 -0.66 -1.32 s-1.06 -0.65336 -1.86 -0.92004 s-2.04 -0.57336 -3.72 -0.92004 c-1.3333 -0.26668 -2.52 -0.62668 -3.56 -1.08 s-1.8333 -1.0466 -2.38 -1.78 s-0.82 -1.6333 -0.82 -2.7 c0 -1.36 0.32668 -2.5467 0.98 -3.56 s1.6533 -1.78 3 -2.3 s3.02 -0.78 5.02 -0.78 z M66.918 13.120000000000001 l0.000039062 6.2 l4.16 0 l0 3.8 l-4.16 0 l0 10.24 c0 0.96 0.16 1.6 0.48 1.92 s0.96 0.48 1.92 0.48 c0.69332 0 1.28 -0.05332 1.76 -0.16 l0 4.44 c-0.8 0.13332 -1.92 0.2 -3.36 0.2 c-2.1867 0 -3.8134 -0.37332 -4.88 -1.12 s-1.6 -2.04 -1.6 -3.88 l0 -12.12 l-3.44 0 l0 -3.8 l3.44 0 l0 -6.2 l5.68 0 z M84.22400000000002 18.76 c6.0268 0.02668 9.04 1.9866 9.04 5.88 l0 10.96 c0 2.0267 0.24 3.4934 0.72 4.4 l-5.76 0 c-0.21332 -0.64 -0.34664 -1.3067 -0.39996 -2 c-1.68 1.7067 -4 2.56 -6.96 2.56 c-2.16 0 -3.8733 -0.54668 -5.14 -1.64 s-1.9 -2.6133 -1.9 -4.56 c0 -1.8933 0.6 -3.36 1.8 -4.4 c1.2267 -1.0933 3.4534 -1.7866 6.68 -2.08 c2.2933 -0.24 3.7466 -0.54 4.36 -0.9 s0.92 -0.91332 0.92 -1.66 c0 -0.93332 -0.28 -1.6266 -0.84 -2.08 s-1.4933 -0.68 -2.8 -0.68 c-1.2 0 -2.1067 0.24668 -2.72 0.74 s-0.97332 1.2866 -1.08 2.38 l-5.68 0 c0.13332 -2.2667 1.0666 -3.9867 2.8 -5.16 s4.0532 -1.76 6.96 -1.76 z M79.504 34.12 c0 1.76 1.16 2.64 3.48 2.64 c3.04 -0.02668 4.5732 -1.5867 4.6 -4.68 l0 -2.2 c-0.45332 0.45332 -1.6 0.78664 -3.44 0.99996 c-1.6 0.18668 -2.7733 0.51336 -3.52 0.98004 s-1.12 1.22 -1.12 2.26 z M110.65 18.76 c0.48 0 0.89336 0.06668 1.24 0.2 l0 5.28 c-0.61332 -0.13332 -1.2933 -0.2 -2.04 -0.2 c-3.7333 0 -5.6 2.2133 -5.6 6.64 l0 9.32 l-5.68 0 l0 -20.68 l5.4 0 l0 3.84 l0.08 0 c0.56 -1.3333 1.4467 -2.4 2.66 -3.2 s2.5266 -1.2 3.94 -1.2 z"></path></g>
			</g>
		</svg>
	